<svg width="216" height="48" viewBox="0 0 216 48" fill="none" xmlns="http://www.w3.org/2000/svg">
<path d="M64.965 33V45.96H56.965V40.68H1.125V33H64.965ZM0.325 31.16V23.8H28.965V22.04H1.845V0.519996H9.845V4.2H55.925V0.519996H63.925V22.04H36.965V23.8H65.605V31.16H0.325ZM9.845 14.36H55.925V11.88H9.845V14.36ZM129.324 45.96V37.72H75.8838V30.04H129.324V14.52H119.964V9.16H81.6438V18.84H124.124V26.52H73.6438V1.48H122.364V6.92H129.324V0.599999H137.324V30.04H137.404V45.96H129.324ZM198.683 37.24V36.76C198.123 35.56 194.203 34.52 176.283 34.52C156.683 34.52 153.803 35.8 153.803 37.08C153.803 38.28 156.683 39.56 176.283 39.56C195.083 39.56 198.443 38.36 198.763 37.24H198.683ZM144.603 24.6V1.48H152.603V6.28H185.883V1.48H193.883V24.6H144.603ZM145.803 37.08C145.803 30.84 152.203 26.84 176.283 26.84C186.843 26.84 193.963 27.64 198.683 29V0.599999H206.683V2.2H215.083V9.8H206.683V35.96C206.763 36.28 206.763 36.68 206.763 37.08C206.763 43.24 200.443 47.24 176.283 47.24C152.203 47.24 145.803 43.24 145.803 37.08ZM152.603 16.92H185.883V13.96H152.603V16.92Z" fill="#AF1A49"/>
</svg>
